<?xml version="1.0" encoding="UTF-8" standalone="no"?><!DOCTYPE svg PUBLIC "-//W3C//DTD SVG 1.1//EN" "http://www.w3.org/Graphics/SVG/1.1/DTD/svg11.dtd"><svg width="100%" height="100%" viewBox="0 0 13 8" version="1.1" xmlns="http://www.w3.org/2000/svg" xmlns:xlink="http://www.w3.org/1999/xlink" xml:space="preserve" xmlns:serif="http://www.serif.com/" style="fill-rule:evenodd;clip-rule:evenodd;stroke-linejoin:round;stroke-miterlimit:1.41421;"><g id="Eye"><path d="M6.227,0c3.438,0 6.228,1.792 6.228,4c0,2.208 -2.79,4 -6.228,4c-3.437,0 -6.227,-1.792 -6.227,-4c0,-2.208 2.79,-4 6.227,-4Zm0,1c1.656,0 3,1.344 3,3c0,1.656 -1.344,3 -3,3c-1.655,0 -3,-1.344 -3,-3c0,-1.656 1.345,-3 3,-3Z"/><path d="M6.227,2c1.104,0 2,0.896 2,2c0,1.104 -0.896,2 -2,2c-1.103,0 -2,-0.896 -2,-2c0,-1.104 0.897,-2 2,-2Zm0,0.586c-0.255,-0.256 -0.779,-0.146 -1.169,0.244c-0.391,0.39 -0.5,0.915 -0.245,1.17c0.089,-0.242 0.286,-0.564 0.569,-0.846c0.282,-0.282 0.604,-0.48 0.845,-0.568Z"/></g></svg>