<?xml version="1.0" encoding="UTF-8" standalone="no"?><!DOCTYPE svg PUBLIC "-//W3C//DTD SVG 1.1//EN" "http://www.w3.org/Graphics/SVG/1.1/DTD/svg11.dtd"><svg width="100%" height="100%" viewBox="0 0 17 16" version="1.1" xmlns="http://www.w3.org/2000/svg" xmlns:xlink="http://www.w3.org/1999/xlink" xml:space="preserve" xmlns:serif="http://www.serif.com/" style="fill-rule:evenodd;clip-rule:evenodd;stroke-linejoin:round;stroke-miterlimit:1.41421;"><g id="Box2"><path d="M16.85,11.875c0.043,0.431 -0.201,0.857 -0.624,1.027l-7.411,2.966c-0.119,0.05 -0.25,0.078 -0.387,0.078c-0.138,0 -0.269,-0.028 -0.388,-0.078l-7.411,-2.966c-0.403,-0.162 -0.643,-0.556 -0.628,-0.966l0,-7.918c-0.018,-0.413 0.222,-0.811 0.628,-0.973l7.407,-2.965c0.12,-0.052 0.252,-0.08 0.391,-0.08c0.141,0 0.275,0.029 0.397,0.082l7.402,2.963c0.085,0.034 0.164,0.079 0.234,0.132c0.139,0.106 0.253,0.25 0.323,0.425c0.036,0.089 0.058,0.181 0.067,0.273l0.004,0l0,0.072c0.001,0.017 0.001,0.034 0,0.051l0,7.877l-0.004,0Zm-13.159,-7.902l4.737,1.896l4.736,-1.896l-4.737,-1.896l-4.736,1.896Z"/></g></svg>