<?xml version="1.0" encoding="UTF-8" standalone="no"?><!DOCTYPE svg PUBLIC "-//W3C//DTD SVG 1.1//EN" "http://www.w3.org/Graphics/SVG/1.1/DTD/svg11.dtd"><svg width="100%" height="100%" viewBox="0 0 16 20" version="1.1" xmlns="http://www.w3.org/2000/svg" xmlns:xlink="http://www.w3.org/1999/xlink" xml:space="preserve" xmlns:serif="http://www.serif.com/" style="fill-rule:evenodd;clip-rule:evenodd;stroke-linejoin:round;stroke-miterlimit:1.41421;"><path d="M14.502,20l-13.004,0c-0.552,0 -1,-0.448 -1,-1l0,-18c0,-0.552 0.448,-1 1,-1l9.701,0c0.256,0 0.512,0.098 0.708,0.293c0.004,0.005 0.009,0.01 0.014,0.014l3.288,3.289c0.195,0.195 0.293,0.451 0.293,0.707l0,14.697c0,0.552 -0.448,1 -1,1Zm-3.08,-4.999l-7,0c-0.552,0 -1,0.448 -1,1c0,0.552 0.448,1 1,1l7,0c0.552,0 1,-0.448 1,-1c0,-0.552 -0.448,-1 -1,-1Zm-0.028,-1.001c0.01,0 0.019,0.001 0.028,0.001c0.552,0 1,-0.448 1,-1c0,-0.552 -0.448,-1 -1,-1l-6.972,0c-0.009,-0.001 -0.018,-0.001 -0.028,-0.001c-0.552,0 -1,0.448 -1,1c0,0.552 0.448,1 1,1l6.972,0Zm0.028,-5l-7,0c-0.552,0 -1,0.448 -1,1c0,0.552 0.448,1 1,1l7,0c0.552,0 1,-0.448 1,-1c0,-0.552 -0.448,-1 -1,-1Z"/></svg>