<?xml version="1.0" encoding="UTF-8" standalone="no"?><!DOCTYPE svg PUBLIC "-//W3C//DTD SVG 1.1//EN" "http://www.w3.org/Graphics/SVG/1.1/DTD/svg11.dtd"><svg width="100%" height="100%" viewBox="0 0 16 20" version="1.1" xmlns="http://www.w3.org/2000/svg" xmlns:xlink="http://www.w3.org/1999/xlink" xml:space="preserve" xmlns:serif="http://www.serif.com/" style="fill-rule:evenodd;clip-rule:evenodd;stroke-linejoin:round;stroke-miterlimit:1.41421;"><g id="file-alt"><path id="thick" d="M1,0l9.701,0l0,0c0.256,0 0.512,0.098 0.708,0.293c0.004,0.005 0.009,0.01 0.014,0.014l3.288,3.289l0,0l0,0c0.195,0.195 0.293,0.451 0.293,0.707l0,0l0,14.697c0,0.552 -0.448,1 -1,1l-13.004,0c-0.552,0 -1,-0.448 -1,-1l0,-18c0,-0.552 0.448,-1 1,-1Zm1,2l0,16l11.004,0l0,-13.283l-2.717,-2.717l-8.287,0Zm8.924,13.001c0.552,0 1,0.448 1,1c0,0.552 -0.448,1 -1,1c-0.009,0 -0.018,0 -0.028,0l-6.972,0c-0.552,0 -1,-0.448 -1,-1c0,-0.552 0.448,-1 1,-1c0.01,0 0.019,0 0.028,0l6.972,0Zm0,-3c0.552,0 1,0.448 1,1c0,0.552 -0.448,1 -1,1c-0.009,0 -0.018,-0.001 -0.028,-0.001l-6.972,0c-0.552,0 -1,-0.448 -1,-1c0,-0.552 0.448,-1 1,-1c0.01,0 0.019,0 0.028,0.001l6.972,0Zm0,-3.001c0.552,0 1,0.448 1,1c0,0.552 -0.448,1 -1,1c-0.009,0 -0.018,0 -0.028,0l-6.972,0c-0.552,0 -1,-0.448 -1,-1c0,-0.552 0.448,-1 1,-1c0.01,0 0.019,0 0.028,0l6.972,0Z"/></g></svg>