<?xml version="1.0" encoding="UTF-8" standalone="no"?><!DOCTYPE svg PUBLIC "-//W3C//DTD SVG 1.1//EN" "http://www.w3.org/Graphics/SVG/1.1/DTD/svg11.dtd"><svg width="100%" height="100%" viewBox="0 0 167 69" version="1.1" xmlns="http://www.w3.org/2000/svg" xmlns:xlink="http://www.w3.org/1999/xlink" xml:space="preserve" xmlns:serif="http://www.serif.com/" style="fill-rule:evenodd;clip-rule:evenodd;stroke-linejoin:round;stroke-miterlimit:1.41421;"><g><path d="M22.974,68.839c-2.723,0 -5.106,-1.833 -5.804,-4.465c-4.044,-15.239 -17.05,-64.254 -17.05,-64.254c5.462,0 10.202,3.766 11.437,9.086c3.053,13.159 8.344,35.961 8.344,35.961c1.125,4.719 2.094,9.406 2.906,14.062c1.751,-7.343 2.782,-11.578 3.094,-12.703c0,0 8.164,-28.967 11.591,-41.129c0.88,-3.121 3.727,-5.277 6.97,-5.277c3.246,0 6.096,2.156 6.98,5.279c2.753,9.728 8.35,29.502 8.35,29.502c2.469,8.625 4.25,16.735 5.344,24.328c0.875,-4.343 2.015,-9.328 3.421,-14.953c0,0 5.466,-22.383 8.614,-35.277c1.272,-5.212 5.943,-8.879 11.308,-8.879c0,0 -13.584,49.538 -17.685,64.494c-0.684,2.495 -2.952,4.225 -5.539,4.225c-2.591,0 -4.863,-1.729 -5.554,-4.226c-3.445,-12.452 -13.315,-48.134 -13.315,-48.134c-1.219,-4.375 -1.938,-7.062 -2.157,-8.062c-0.718,3.156 -1.39,5.844 -2.015,8.062c0,0 -9.796,35.185 -13.328,47.869c-0.739,2.654 -3.156,4.491 -5.912,4.491l0,0Z" style="fill:#fff;fill-rule:nonzero;"/><path d="M122.331,68.839c-1.374,0 -2.575,-0.925 -2.927,-2.252c-2.028,-7.641 -8.519,-32.105 -8.519,-32.105c2.73,0 5.1,1.883 5.717,4.542c1.527,6.579 4.172,17.98 4.172,17.98c0.563,2.359 1.047,4.702 1.453,7.03c0.875,-3.671 1.391,-5.788 1.547,-6.351c0,0 4.085,-14.493 5.797,-20.57c0.439,-1.556 1.859,-2.631 3.476,-2.631c1.627,0 3.056,1.08 3.499,2.646c1.377,4.866 4.172,14.743 4.172,14.743c1.235,4.312 2.125,8.367 2.672,12.163c0.438,-2.171 1.008,-4.663 1.711,-7.476c0,0 2.732,-11.19 4.306,-17.637c0.636,-2.606 2.972,-4.439 5.654,-4.439c0,0 -6.791,24.766 -8.842,32.244c-0.342,1.248 -1.476,2.113 -2.77,2.113c-1.295,0 -2.431,-0.864 -2.776,-2.112c-1.722,-6.225 -6.657,-24.066 -6.657,-24.066c-0.61,-2.187 -0.969,-3.531 -1.078,-4.031c-0.36,1.578 -0.696,2.922 -1.008,4.031c0,0 -4.908,17.628 -6.669,23.953c-0.366,1.315 -1.564,2.225 -2.929,2.225l-0.001,0Z" style="fill:#fff;fill-rule:nonzero;"/><path d="M81.142,68.839c-0.545,0 -1.056,-0.269 -1.366,-0.719c-0.309,-0.45 -0.377,-1.023 -0.181,-1.533c2.388,-6.217 9.053,-23.573 11.454,-29.825c0.528,-1.373 1.847,-2.28 3.319,-2.28l0.001,0c1.484,0 2.821,0.897 3.384,2.271c2.537,6.199 9.563,23.366 12.154,29.699c0.219,0.534 0.157,1.141 -0.164,1.62c-0.322,0.479 -0.861,0.767 -1.438,0.767c-1.567,0 -2.971,-0.964 -3.534,-2.426c-1.184,-3.075 -3.073,-7.98 -3.073,-7.98l-14.367,0c0,0 -1.839,5.074 -2.95,8.135c-0.494,1.363 -1.788,2.271 -3.238,2.271l-0.001,0Zm7.502,-14.109l11.647,0l-3.585,-9.515c-1.094,-2.89 -1.906,-5.265 -2.438,-7.124c-0.437,2.203 -1.054,4.39 -1.851,6.562l-3.773,10.077Z" style="fill:#fff;fill-rule:nonzero;"/><path d="M163.937,68.839c-0.603,0 -1.181,-0.24 -1.607,-0.666c-0.427,-0.426 -0.666,-1.005 -0.666,-1.608c0,-6.238 0,-23.572 0,-29.81c0,-0.603 0.239,-1.181 0.666,-1.607c0.426,-0.427 1.004,-0.666 1.607,-0.666c0.603,0 1.181,0.239 1.608,0.666c0.426,0.426 0.665,1.004 0.665,1.607c0,6.238 0,23.572 0,29.81c0,0.603 -0.239,1.182 -0.665,1.608c-0.427,0.426 -1.005,0.666 -1.608,0.666l0,0Z" style="fill:#fff;fill-rule:nonzero;"/><ellipse cx="110.885" cy="19.745" rx="7.2" ry="4.8" style="fill:#fff;"/><ellipse cx="155.061" cy="19.745" rx="7.2" ry="4.8" style="fill:#fff;"/><ellipse cx="132.973" cy="19.745" rx="7.2" ry="4.8" style="fill:#fff;"/></g></svg>