<?xml version="1.0" encoding="UTF-8" standalone="no"?><!DOCTYPE svg PUBLIC "-//W3C//DTD SVG 1.1//EN" "http://www.w3.org/Graphics/SVG/1.1/DTD/svg11.dtd"><svg width="100%" height="100%" viewBox="0 0 20 17" version="1.1" xmlns="http://www.w3.org/2000/svg" xmlns:xlink="http://www.w3.org/1999/xlink" xml:space="preserve" xmlns:serif="http://www.serif.com/" style="fill-rule:evenodd;clip-rule:evenodd;stroke-linejoin:round;stroke-miterlimit:1.41421;"><g id="Warehouse"><path d="M10,0l9.496,5.483l0.012,0.007c0.153,0.09 0.274,0.215 0.357,0.359c0.085,0.147 0.134,0.317 0.135,0.499l0,0.003l0,0.001c0,0.075 -0.008,0.15 -0.025,0.224l-0.001,0.001l0,0l0,0l0,0.001c-0.024,0.105 -0.065,0.204 -0.12,0.293c-0.089,0.146 -0.209,0.261 -0.347,0.342c-0.148,0.087 -0.32,0.137 -0.504,0.138l0,0l0,0l-0.003,0l-1,0l0,8.538c0,0.552 -0.448,1 -1,1l-2,0c-0.552,0 -1,-0.448 -1,-1l0,0c0,0 0,-1 0,-1l0,-6c0,-0.519 -0.396,-0.946 -1,-1l-6,0c-0.603,0.054 -1,0.481 -1,1l0,7c0,0.552 -0.448,1 -1,1l-2,0c-0.552,0 -1,-0.448 -1,-1l0,-8.538l-1,0c0,0 -0.003,0 -0.003,0l0,0l0,0c-0.184,-0.001 -0.356,-0.051 -0.504,-0.138c-0.138,-0.081 -0.258,-0.196 -0.347,-0.342c-0.055,-0.089 -0.096,-0.188 -0.12,-0.293l0,-0.001l0,0l0,0l-0.001,-0.001c-0.017,-0.074 -0.025,-0.149 -0.025,-0.224l0,-0.001l0,-0.003l0,0l0,0c0.001,-0.182 0.05,-0.352 0.135,-0.499c0.083,-0.144 0.204,-0.269 0.357,-0.359l0,0l0.001,-0.001l0.001,-0.001l0.001,0c0.003,-0.002 0.006,-0.004 0.009,-0.005l9.496,-5.483Z"/><g><circle cx="7.5" cy="15.889" r="1"/><circle cx="12.5" cy="15.889" r="1"/><rect x="7.5" y="14.889" width="5" height="2"/></g><g><circle cx="7.5" cy="12.889" r="1"/><circle cx="12.5" cy="12.889" r="1"/><rect x="7.5" y="11.889" width="5" height="2"/></g><g><circle cx="7.5" cy="9.889" r="1"/><circle cx="12.5" cy="9.889" r="1"/><rect x="7.5" y="8.889" width="5" height="2"/></g></g></svg>