<svg version="1" xmlns="http://www.w3.org/2000/svg" width="933.333" height="933.333" viewBox="0 0 700.000000 700.000000"><path d="M316.5 1.1c-32.4 2.8-72.2 12.8-102.4 25.6C172 44.6 138.4 67 105.6 99 47.8 155.4 13.8 223.4 2.3 305c-2.5 17.9-2.5 69.3 0 86.9 11.3 79.8 44.2 147.2 98.6 202.1 82.6 83.1 197.8 119 313.1 97.4 55.6-10.4 107.8-34.6 153.5-71 14.1-11.3 41.6-38.8 52.9-52.9 58.9-74 85.3-164.6 75-257.5C683 198.4 618.1 100.4 519.5 44.5 477.1 20.4 429.2 5.6 379 1c-13.4-1.2-48-1.1-62.5.1zM194.1 221.6c3 .9 7.3 2.7 9.5 4 5.7 3.3 13.6 12 16.8 18.2 2.7 5.4 35.2 142.7 42.2 178.7 4.3 21.5 4.3 21.7 5.5 19 .5-1.1 3.3-12.1 6.3-24.5 6.2-25.6 48.9-177.7 51.4-182.9 2.2-4.6 7.7-9.9 12.6-12.2 4.8-2.2 13.9-2.5 19.8-.7 5.2 1.5 13.2 8.7 15.1 13.6 2.2 5.4 35.7 124.3 40.6 143.7 4.3 17 9.2 40.8 11.2 54 .6 4.4 1.5 8.7 2 9.5 1 1.9 1 1.9 4.4-14 1.5-6.9 11.9-50.2 23.1-96.3 13.7-56.3 21.3-85.5 23-88.9 5.7-11.3 19.7-21.3 31.7-22.5l5.4-.5-32.3 117.8c-17.8 64.9-33.1 120.6-34.1 123.9-5.1 17.3-25.5 22-36.6 8.3-2.4-3-5.6-13.3-20.8-68.4-21.1-76.1-39.3-142.1-40.9-148.3-.6-2.3-1.4-4.1-1.7-3.7-.3.3-2.5 8.1-4.8 17.3-10.3 40.3-53.7 194.3-56.1 199-4.4 8.7-13.7 13.4-23.4 11.8-4.3-.7-11-5.3-14.2-9.6-1.4-1.9-49.6-180-66.4-245.7-.5-1.9-.2-2.2 2.3-2.2 1.6 0 5.4.7 8.4 1.6z"/></svg>